inDegrees=no
num_controls=7
num_derivatives=13
num_iterations=69
num_multipliers=7
num_parameters=0
num_slacks=7
num_states=26
objective=0.333923
objective_accelerations=0.037043
objective_balance=0.001338
objective_effort=0.027208
objective_height=0.266853
objective_ligament=0.001481
solver_duration=728.781604
status=Solve_Succeeded
success=true
DataType=double
version=3
OpenSimVersion=4.5
endheader
time	/jointset/ground_pelvis/pelvis_tilt/value	/jointset/ground_pelvis/pelvis_tx/value	/jointset/ground_pelvis/pelvis_ty/value	/jointset/hip_r/hip_flexion_r/value	/jointset/hip_r/hip_adduction_r/value	/jointset/hip_r/hip_rotation_r/value	/jointset/back/lumbar_extension/value	/jointset/patellofemoral_r/patellar_flexion_r/value	/jointset/knee_r/knee_flexion_r/value	/jointset/knee_r/knee_adduction_r/value	/jointset/knee_r/knee_rotation_r/value	/jointset/ankle_r/ankle_angle_r/value	/jointset/subtalar_r/subtalar_angle_r/value	/jointset/ground_pelvis/pelvis_tilt/speed	/jointset/ground_pelvis/pelvis_tx/speed	/jointset/ground_pelvis/pelvis_ty/speed	/jointset/hip_r/hip_flexion_r/speed	/jointset/hip_r/hip_adduction_r/speed	/jointset/hip_r/hip_rotation_r/speed	/jointset/back/lumbar_extension/speed	/jointset/patellofemoral_r/patellar_flexion_r/speed	/jointset/knee_r/knee_flexion_r/speed	/jointset/knee_r/knee_adduction_r/speed	/jointset/knee_r/knee_rotation_r/speed	/jointset/ankle_r/ankle_angle_r/speed	/jointset/subtalar_r/subtalar_angle_r/speed	/forceset/tau_hip_flexion_r	/forceset/tau_hip_adduction_r	/forceset/tau_hip_rotation_r	/forceset/tau_knee_flexion_r	/forceset/tau_ankle_angle_r	/forceset/tau_subtalar_angle_r	/forceset/tau_lumbar_extension	lambda_cid13_p0	lambda_cid14_p0	lambda_cid14_p1	lambda_cid14_p2	lambda_cid14_p3	lambda_cid14_p4	lambda_cid14_p5	/jointset/ground_pelvis/pelvis_tilt/accel	/jointset/ground_pelvis/pelvis_tx/accel	/jointset/ground_pelvis/pelvis_ty/accel	/jointset/hip_r/hip_flexion_r/accel	/jointset/hip_r/hip_adduction_r/accel	/jointset/hip_r/hip_rotation_r/accel	/jointset/back/lumbar_extension/accel	/jointset/patellofemoral_r/patellar_flexion_r/accel	/jointset/knee_r/knee_flexion_r/accel	/jointset/knee_r/knee_adduction_r/accel	/jointset/knee_r/knee_rotation_r/accel	/jointset/ankle_r/ankle_angle_r/accel	/jointset/subtalar_r/subtalar_angle_r/accel	gamma_cid13_p0	gamma_cid14_p0	gamma_cid14_p1	gamma_cid14_p2	gamma_cid14_p3	gamma_cid14_p4	gamma_cid14_p5
1	-0.2813851060714272	-0.009133467466337461	0.6310471889376581	1.473939550408525	-0.2372450646756824	-0.08633597140501412	-0.7853913236831052	1.50917833319054	1.509178333190547	-0.174531300957985	0.1714225031062935	0.4362247011927828	0.1777523848939054	0.07179762417717953	0.006729978504658876	0.01575160261326858	-0.1040818529644365	-0.002511516978458625	-0.002436507485564625	0.001184111895056456	-0.01622797211704579	-0.01622797211704611	0.005236454255448083	0.002383067919331254	0.01586327431109141	0.003541040456106056	-0.3652013958843953	0.05008796898318912	0.007350902301773856	-0.4330569565604586	-0.04610142672964246	-0.0003748090814762129	0.3754206777260022	-0.04108815615596206	-67.38177806519862	-16.92698943939067	8.793094861812332	8.618264494288253	-774.576164051844	51.94714926335562	1.356612419570827	0.1599085144052897	1.878812551142398	-5.641507543666526	0.1874636159735587	-0.208793669547701	0.1017876718620976	-5.131276827067031	-5.131276827067018	1.213981762713355	0.09793381652936534	-1.062144634636713	-0.1914111878834204	3.143760391565208e-09	5.943517031246103e-09	1.412073951698191e-08	2.228368228333233e-08	-5.710290598558968e-09	-1.901895781732494e-09	3.930041214536774e-08
1.01	-0.2806006748336808	-0.009058012062976161	0.6312982940962228	1.472618447243109	-0.2372608614729549	-0.08636832465005044	-0.7853712398061542	1.508760421692574	1.508760421692577	-0.1744159455932838	0.1714508201823112	0.4363305374975087	0.1777782188558112	0.0850134639235066	0.008380764406806658	0.03444642893170986	-0.1600452913899952	-0.0006430511738566339	-0.004061225818457416	0.003076456607565719	-0.06730580082034329	-0.06730580082034482	0.01778221958873391	0.003257211195159224	0.005341427048556059	0.001654726246082147	-0.3659368828596536	0.05009519357236902	0.007366992562151418	-0.4326101692330664	-0.04651138924441087	-0.0003199945782812954	0.3764524430303044	-0.04107653789371522	-67.512590922695	-16.91106456088367	8.773395966764891	8.374660964572035	-774.8510823091897	51.93612052853104	1.292798699560442	0.1706107180414905	1.861365947354651	-5.559735856605807	0.1872667255620373	-0.1433660922853796	0.2695268374019505	-5.08875895221815	-5.088758952218322	1.267010969093805	0.07870499547972389	-1.041587996743398	-0.1828778796175778	1.022160650777928e-08	1.65221053595131e-08	5.199666201121809e-08	7.933883590761984e-08	-1.117417364687661e-08	-8.432245649911348e-09	1.315794319181577e-07
1.02	-0.2796863394089915	-0.008965459382608891	0.6317356571730035	1.470740514920523	-0.2372578278796077	-0.08641773611384747	-0.78532491868877	1.507833187295522	1.507833187295523	-0.1741767051651595	0.1714871887735569	0.4363322786846685	0.1777860624072057	0.09777846156570866	0.01014943390585327	0.05300318625654369	-0.2154476843997619	0.001254561145088839	-0.005848151236364428	0.006431559978338203	-0.1180925519339222	-0.118092551933925	0.03001346694032424	0.00399337096579606	-0.004955749201237846	-5.7041646170372e-05	-0.3666723698348865	0.0501024181615408	0.007383082822582518	-0.4321633819056687	-0.04692135175918655	-0.0002651800751065178	0.3774842083346295	-0.04107141567323248	-67.65022590240194	-16.8895350576876	8.745036871135451	8.129202846715243	-775.2495097809965	51.96886741410918	1.266443998745845	0.1834852337850252	1.851198752420904	-5.529298460508094	0.1932929188422648	-0.2412350865505468	0.3943394035146863	-5.073061309123317	-5.073061309123316	1.151078166374246	0.07033711549113281	-1.017210432088481	-0.1565019243291539	1.617383627372632e-08	2.343123686323562e-08	8.23693618124176e-08	1.223105091701254e-07	-1.277537436246241e-08	-1.816143474095795e-08	2.043654616743596e-07
1.03	-0.2786457970221566	-0.00885469971305199	0.6323580873981237	1.468310325425139	-0.2372356354926123	-0.08648597027423503	-0.785239407830256	1.5063990177688	1.506399017768796	-0.1738167407591538	0.171530213226351	0.4362318496363317	0.1777775707827699	0.110334892740666	0.01201527962736426	0.07147874386975836	-0.27059947637698	0.0031911905768655	-0.007830614230742822	0.01074861914711369	-0.1687444461300679	-0.1687444461300703	0.04193667958326434	0.004588710995416706	-0.01512528096664434	-0.001624167489130598	-0.3667420582224937	0.05014590398478268	0.007503426349747267	-0.4318958408298634	-0.04712641836532683	-0.0002715784203753719	0.3778551180464464	-0.0410864372359683	-67.72144238985001	-16.8897522430425	8.727902579814785	8.056358103285017	-775.4174934440325	51.99271649022528	1.250980556601255	0.1900483077364678	1.845111387299402	-5.509502869061429	0.1949601902389023	-0.1815269930110832	0.462090286870972	-5.061721841673423	-5.061721841673345	1.206527008462548	0.05075474649604073	-1.016106927450127	-0.1542132770244795	2.211458015854818e-08	3.030292492997298e-08	1.126654981167493e-07	1.651384734493473e-07	-1.433715995220398e-08	-2.792326504856444e-08	2.769525833691677e-07
1.04	-0.277479542747626	-0.008724898772999409	0.6331651486236815	1.465328341349442	-0.2371938543643188	-0.08657498408199568	-0.7851083861573884	1.504458235626753	1.504458235626745	-0.1733388273876773	0.1715785155393997	0.436029868794602	0.1777539288273557	0.1229208391048487	0.01395768800498865	0.08992938634408321	-0.3258066004635071	0.005172309404383999	-0.01000408071030606	0.01553372284836845	-0.2194150749987426	-0.2194150749987445	0.05360326003455017	0.00504894301697806	-0.02526610787938622	-0.003087107841891822	-0.3668117466100804	0.05018938980802347	0.007623769876937522	-0.4316282997540555	-0.04733148497147156	-0.0002779767656491132	0.3782260277582817	-0.04110813566779283	-67.79963698325855	-16.88473477712659	8.702558457490818	7.980289081149073	-775.710801710111	52.05891494690832	1.272347036590901	0.1987977650077134	1.846215724642937	-5.540364882369899	0.2021907979906301	-0.2794357835875199	0.4879483100105299	-5.07680824362912	-5.076808243629092	1.099751728043385	0.04331551387927515	-1.011469461555536	-0.1356648262893477	2.64584564903728e-08	3.876063980803632e-08	1.458265054365312e-07	2.032396928922125e-07	-2.141500942910474e-08	-3.262752546995051e-08	3.439813417380325e-07
1.05	-0.2761876800419724	-0.008575270420639505	0.6341564213975835	1.461794716594338	-0.2371321919772031	-0.08668679422274152	-0.784926494234759	1.502010892090232	1.502010892090231	-0.1727454871311348	0.1716310769770036	0.4357265234752132	0.1777158437636042	0.1354153426591993	0.01598289079984258	0.1083039633954588	-0.3808558059703826	0.007151451166707655	-0.01238887730086008	0.02099231372108932	-0.2700320919464109	-0.2700320919464034	0.06503953295532582	0.005474522136109454	-0.03540828868740888	-0.004548003028909376	-0.3666962762763772	0.05018388973069098	0.00778817542475164	-0.4309412815855976	-0.04756164189419764	-0.0002865653668375848	0.3785068612960466	-0.04113889981020864	-67.85641220931132	-16.87002852476335	8.667800468065419	7.877662511569102	-775.5891699523222	52.07328348457884	1.23255723509173	0.2066119803922128	1.82989045858768	-5.477807967979031	0.1944993777959348	-0.2226210756789459	0.5969622824156403	-5.050923560333838	-5.050923560332429	1.16177033745829	0.04392009769467046	-1.016391379549714	-0.1539598751799874	3.075243071116627e-08	4.726791802395358e-08	1.790770399755458e-07	2.411932015589416e-07	-2.86652359024792e-08	-3.717373683239223e-08	4.108364012529616e-07
1.06	-0.2747719612567288	-0.008404943951597368	0.6353308022946398	1.457712477867541	-0.2370509934699745	-0.08682337622517285	-0.7846855868420989	1.499058023356235	1.499058023356239	-0.1720385430927102	0.1716882424031516	0.4353215965499188	0.1776626181459283	0.1476920550229355	0.01809731134143504	0.1265510109749474	-0.4355293948025636	0.009079533426738968	-0.0149584530469987	0.02733681685432095	-0.3205201144940058	-0.3205201144939891	0.07632401641064607	0.005969740725825071	-0.04558242906039467	-0.006115218626808132	-0.3665808059426621	0.05017838965335965	0.007952580972570343	-0.4302542634171393	-0.04779179881692609	-0.0002951539680251208	0.3787876948338222	-0.04117643623020282	-67.92033650793329	-16.85030075188726	8.625075943097187	7.771296494929374	-775.5955344958546	52.12891550805219	1.228788798468019	0.2166413143554286	1.820709830265527	-5.465241547431019	0.1919788975321594	-0.3163916147044435	0.6651307621126807	-5.05100936361445	-5.051009363614456	1.069393834952301	0.05724340799612156	-1.017861374548144	-0.156928908465584	3.483009734949439e-08	5.311264800701731e-08	2.006677333622711e-07	2.736537148827347e-07	-3.18072981338291e-08	-4.221286053273492e-08	4.604610922763609e-07
1.07	-0.2732342062330617	-0.008213002425670109	0.6366869879621857	1.453085112160341	-0.2369507687048667	-0.0869865448327214	-0.7843772243743418	1.495601012658894	1.495601012658897	-0.1712195134706518	0.1717506381714346	0.4348147658979624	0.177593191402101	0.159856891985784	0.02030837333062073	0.144662061047932	-0.4899070284204878	0.01095682184827211	-0.01768908796106837	0.03444331422078127	-0.3708504471897115	-0.3708504471896982	0.08747064783740011	0.006512248428659371	-0.05578933856984318	-0.007788205632179784	-0.3661628595691279	0.05016632439584395	0.008169984340985729	-0.4292562878618266	-0.0479918568849762	-0.0003181696342371505	0.378804102261843	-0.0412196140338859	-67.9491858963362	-16.82698091715564	8.577534129066905	7.672274399175244	-775.1994860711599	52.13856589870726	1.210033923106987	0.2259385767036893	1.802683845605599	-5.418505624298264	0.1843537217162707	-0.2534466259784139	0.7495548524581596	-5.019316391602677	-5.019316391603167	1.135601187723096	0.05326074526599228	-1.022950169749131	-0.1751239617008801	3.889625826535093e-08	5.881575308407818e-08	2.21638222432385e-07	3.058220476031802e-07	-3.473084099060319e-08	-4.727820297445532e-08	5.091692743374448e-07
1.08	-0.2715748622841837	-0.007998430292750189	0.6382235603804192	1.447915073845899	-0.236832021074092	-0.0871774292286563	-0.7839945678072108	1.491641644400785	1.491641644400784	-0.1702893568560851	0.1718185602755139	0.4342056972647899	0.1775065067151946	0.1720098400651827	0.0226234327399667	0.1626283611125426	-0.544063916251417	0.01278410655989982	-0.02050161072394562	0.04219563672905948	-0.4209916266475798	-0.4209916266475698	0.09854941491159888	0.007075007885050325	-0.06603002530352858	-0.009566807242668526	-0.3657449131955848	0.05015425913832982	0.008387387709388627	-0.4282583123065155	-0.04819191495302796	-0.0003411853004467215	0.3788205096898718	-0.04126965486664902	-67.98531703817743	-16.7987436999759	8.522134810685092	7.568734065988974	-774.9345029540975	52.18856456297046	1.226411021778034	0.2374407983874928	1.791759828590729	-5.421092390031991	0.1819781555510707	-0.3327691844659649	0.7942957904762596	-5.013178716046971	-5.01317871604696	1.055820964441246	0.06129375870745624	-1.024616819395503	-0.1780518294889995	4.221989285939882e-08	6.341496269924229e-08	2.385826594021147e-07	3.327051649454834e-07	-3.707402677584869e-08	-5.122726911342902e-08	5.475158651177913e-07
